<svg xmlns="http://www.w3.org/2000/svg" viewBox="0 0 380 330" width="380" height="330">
  <defs>
    <linearGradient id="drop2" x1="0%" y1="0%" x2="100%" y2="100%">
      <stop offset="0%" stop-color="#3DA5E8"/>
      <stop offset="55%" stop-color="#1E6FC4"/>
      <stop offset="100%" stop-color="#134B96"/>
    </linearGradient>
    <linearGradient id="wave2" x1="0%" y1="0%" x2="100%" y2="0%">
      <stop offset="0%" stop-color="#A9DBF7"/>
      <stop offset="100%" stop-color="#6FC0F2"/>
    </linearGradient>
    <clipPath id="dropClip2">
      <path d="M190 30 C190 30 246 92 246 134 A56 56 0 1 1 134 134 C134 92 190 30 190 30 Z"/>
    </clipPath>
  </defs>
  <g>
    <path d="M190 30 C190 30 246 92 246 134 A56 56 0 1 1 134 134 C134 92 190 30 190 30 Z" fill="url(#drop2)"/>
    <g clip-path="url(#dropClip2)">
      <path d="M124 144 C148 124 172 164 196 144 C220 124 244 164 268 144 L268 210 L124 210 Z" fill="url(#wave2)" opacity="0.92"/>
      <path d="M124 162 C148 142 172 182 196 162 C220 142 244 182 268 162 L268 210 L124 210 Z" fill="#ffffff" opacity="0.85"/>
    </g>
    <ellipse cx="170" cy="86" rx="11" ry="17" fill="#ffffff" opacity="0.30" transform="rotate(-20 170 86)"/>
  </g>
  <g font-family="Arial, Helvetica, sans-serif" text-anchor="middle">
    <text x="190" y="272" font-size="46" letter-spacing="-1">
      <tspan fill="#1E6FC4" font-weight="400">Smart</tspan><tspan fill="#134B96" font-weight="700">Hydro</tspan>
    </text>
    <text x="190" y="300" font-size="13" letter-spacing="3.5" fill="#5A93C9" font-weight="400">TRINKE · TRACKE · LEBE GESUND</text>
  </g>
</svg>
