<svg xmlns="http://www.w3.org/2000/svg" viewBox="0 0 200 200" width="200" height="200">
  <defs>
    <linearGradient id="bg3" x1="0%" y1="0%" x2="100%" y2="100%">
      <stop offset="0%" stop-color="#2E8BD8"/>
      <stop offset="100%" stop-color="#134B96"/>
    </linearGradient>
    <linearGradient id="wave3" x1="0%" y1="0%" x2="100%" y2="0%">
      <stop offset="0%" stop-color="#A9DBF7"/>
      <stop offset="100%" stop-color="#6FC0F2"/>
    </linearGradient>
    <clipPath id="dropClip3">
      <path d="M100 44 C100 44 142 90 142 122 A42 42 0 1 1 58 122 C58 90 100 44 100 44 Z"/>
    </clipPath>
  </defs>
  <rect x="0" y="0" width="200" height="200" rx="44" fill="url(#bg3)"/>
  <path d="M100 44 C100 44 142 90 142 122 A42 42 0 1 1 58 122 C58 90 100 44 100 44 Z" fill="#ffffff"/>
  <g clip-path="url(#dropClip3)">
    <path d="M50 130 C72 114 94 150 116 130 C138 114 160 150 182 130 L182 190 L50 190 Z" fill="url(#wave3)" opacity="0.95"/>
    <path d="M50 146 C72 130 94 166 116 146 C138 130 160 166 182 146 L182 190 L50 190 Z" fill="#1E6FC4" opacity="0.55"/>
  </g>
  <ellipse cx="84" cy="92" rx="7" ry="11" fill="#1E6FC4" opacity="0.18" transform="rotate(-20 84 92)"/>
</svg>
